<svg width="176" height="99" viewBox="0 0 176 99" fill="none" xmlns="http://www.w3.org/2000/svg">
<path d="M168.29 43.1553C178.07 33.3417 178.07 17.3842 168.29 7.57066C158.511 -2.24295 142.609 -2.24295 132.83 7.57066C126.749 13.6733 124.462 22.1536 125.941 30.0567L106.122 10.1684C101.396 5.42651 95.1091 2.82879 88.3845 2.82879C81.6731 2.82879 75.3726 5.44025 70.661 10.1684C65.9493 14.8965 63.347 21.219 63.347 27.9539C63.347 28.9847 63.4292 30.0018 63.5524 31.0052L42.7747 10.1684C38.0493 5.42651 31.7625 2.82879 25.0512 2.82879C18.3398 2.82879 12.0394 5.44025 7.32771 10.1684C2.61606 14.8965 0 21.219 0 27.9539C0 34.6887 2.60237 41.0112 7.31401 45.7393L52.9512 91.5364C57.6629 96.2645 63.9633 98.8762 70.6747 98.8762C77.3861 98.8762 83.6865 96.2645 88.3982 91.5364C94.0545 85.8597 96.4245 78.1215 95.5201 70.6995L116.285 91.5364C120.997 96.2645 127.296 98.8762 134.008 98.8762C140.719 98.8762 147.02 96.2645 151.732 91.5364C161.511 81.7226 161.511 65.7651 151.732 55.9515L145.856 50.0551C147.404 50.3438 148.965 50.4949 150.526 50.4949C156.978 50.5087 163.401 48.0622 168.29 43.1553ZM84.9055 88.0176C77.0711 95.8798 64.3058 95.8798 56.4713 88.0176L10.834 42.2207C2.99956 34.3589 2.99956 21.5488 10.834 13.687C14.6144 9.89348 19.6684 7.80432 25.0512 7.80432C30.434 7.80432 35.488 9.89348 39.2683 13.687L67.9217 42.4407C68.7435 43.6089 69.6475 44.7222 70.6747 45.7531L87.3847 62.5352C92.617 70.3696 91.795 81.1041 84.9055 88.0176ZM148.253 88.0176C140.418 95.8798 127.653 95.8798 119.818 88.0176L91.1378 59.2502C90.3294 58.0957 89.4391 56.9962 88.4118 55.9653L71.6883 39.1832C66.4561 31.3487 67.278 20.6143 74.1674 13.687C77.9476 9.89348 83.0017 7.80432 88.3845 7.80432C93.7676 7.80432 98.8216 9.89348 102.602 13.687L148.239 59.4839C156.087 67.3596 156.087 80.1557 148.253 88.0176ZM136.336 11.103C140.116 7.30951 145.17 5.22034 150.554 5.22034C155.936 5.22034 160.991 7.30951 164.771 11.103C172.605 18.9649 172.605 31.7748 164.771 39.6367C160.991 43.4303 155.936 45.5194 150.554 45.5194C145.17 45.5194 140.116 43.4303 136.336 39.6367C128.502 31.7611 128.502 18.9649 136.336 11.103Z" fill="black"/>
</svg>
