<?xml version="1.0" encoding="UTF-8"?><svg id="Capa_1" xmlns="http://www.w3.org/2000/svg" xmlns:xlink="http://www.w3.org/1999/xlink" viewBox="0 0 228 150"><defs><style>.cls-1{fill:none;}.cls-2{clip-path:url(#clippath);}.cls-3{fill:#ee7070;}.cls-4{clip-path:url(#clippath-1);}.cls-5{clip-path:url(#clippath-2);}</style><clipPath id="clippath"><rect class="cls-1" width="228" height="150"/></clipPath><clipPath id="clippath-1"><rect class="cls-1" x="64.92" width="92" height="92"/></clipPath><clipPath id="clippath-2"><rect class="cls-1" x="64.92" y="18.97" width="92" height="51.69"/></clipPath></defs><g class="cls-2"><g><g class="cls-4"><g class="cls-5"><path class="cls-3" d="m153.07,41.46c5.12-5.14,5.12-13.5,0-18.64-5.12-5.14-13.45-5.14-18.58,0-3.19,3.2-4.38,7.64-3.61,11.78l-10.38-10.42c-2.48-2.48-5.77-3.84-9.29-3.84s-6.82,1.37-9.29,3.84c-2.47,2.48-3.83,5.79-3.83,9.32,0,.54.04,1.07.11,1.6l-10.88-10.92c-2.48-2.48-5.77-3.84-9.28-3.84s-6.82,1.37-9.28,3.84c-2.47,2.48-3.84,5.79-3.84,9.32s1.36,6.84,3.83,9.32l23.91,23.99c2.47,2.48,5.77,3.84,9.28,3.84s6.82-1.37,9.28-3.84c2.96-2.97,4.2-7.03,3.73-10.92l10.88,10.92c2.47,2.48,5.77,3.84,9.28,3.84s6.82-1.37,9.29-3.84c5.12-5.14,5.12-13.5,0-18.64l-3.08-3.09c.81.15,1.63.23,2.45.23,3.38,0,6.75-1.27,9.31-3.84Zm-43.68,23.5c-4.1,4.12-10.79,4.12-14.89,0l-23.91-23.99c-4.1-4.12-4.1-10.83,0-14.95,1.98-1.99,4.63-3.08,7.45-3.08s5.47,1.09,7.45,3.08l15.01,15.06c.43.61.9,1.2,1.44,1.74l8.75,8.79c2.74,4.1,2.31,9.73-1.3,13.35Zm33.18,0c-4.1,4.12-10.79,4.12-14.9,0l-15.02-15.07c-.42-.6-.89-1.18-1.43-1.72l-8.76-8.79c-2.74-4.1-2.31-9.73,1.3-13.36,1.98-1.99,4.63-3.08,7.45-3.08s5.47,1.09,7.45,3.08l23.91,23.99c4.11,4.13,4.11,10.83,0,14.95Zm-6.24-40.29c1.98-1.99,4.63-3.08,7.45-3.08s5.47,1.09,7.45,3.08c4.1,4.12,4.1,10.83,0,14.95-1.98,1.99-4.63,3.08-7.45,3.08s-5.47-1.09-7.45-3.08c-4.1-4.13-4.1-10.83,0-14.95Z"/></g></g><path class="cls-3" d="m30.07,118c0,1.29-.17,2.53-.51,3.73-.33,1.18-.79,2.3-1.41,3.34-.61,1.03-1.34,1.97-2.19,2.83-.85.85-1.79,1.58-2.83,2.19-1.04.61-2.16,1.09-3.36,1.43-1.18.33-2.42.49-3.71.49H7.63v-28.01h8.44c1.29,0,2.53.17,3.71.51,1.2.33,2.32.79,3.36,1.41,1.04.61,1.99,1.35,2.83,2.21.85.85,1.58,1.79,2.19,2.83.61,1.03,1.08,2.14,1.41,3.34.34,1.18.51,2.42.51,3.71Zm-5.61,0c0-1.16-.22-2.25-.66-3.26-.43-1.01-1.03-1.9-1.8-2.66-.76-.77-1.65-1.37-2.68-1.82-1.02-.44-2.1-.66-3.26-.66h-2.79v16.8h2.79c1.16,0,2.25-.21,3.26-.64,1.03-.44,1.92-1.04,2.68-1.8.77-.77,1.37-1.66,1.8-2.68.44-1.03.66-2.12.66-3.28Zm28.98,3.36c0,1.56-.28,3.02-.84,4.38-.56,1.34-1.32,2.51-2.29,3.5-.96.98-2.1,1.75-3.4,2.32-1.29.56-2.68.84-4.16.84s-2.86-.28-4.16-.84c-1.29-.57-2.42-1.35-3.4-2.32-.96-.99-1.73-2.16-2.29-3.5-.56-1.35-.84-2.81-.84-4.38s.28-3.06.84-4.41c.56-1.35,1.32-2.52,2.29-3.5.98-.99,2.11-1.76,3.4-2.32,1.3-.56,2.69-.84,4.16-.84s2.87.27,4.16.8c1.3.52,2.43,1.27,3.4,2.25.96.96,1.73,2.13,2.29,3.5.56,1.35.84,2.87.84,4.53Zm-5.37,0c0-.86-.14-1.63-.43-2.32-.27-.7-.65-1.3-1.13-1.8-.48-.51-1.05-.89-1.7-1.15-.64-.27-1.32-.41-2.05-.41s-1.42.14-2.07.41c-.64.26-1.2.64-1.68,1.15-.47.49-.84,1.09-1.11,1.8-.27.69-.41,1.47-.41,2.32,0,.81.14,1.56.41,2.25.27.69.64,1.29,1.11,1.8.48.51,1.04.91,1.68,1.21.65.29,1.34.43,2.07.43s1.41-.14,2.05-.41c.65-.27,1.22-.66,1.7-1.15.48-.49.86-1.09,1.13-1.8.29-.7.43-1.48.43-2.32Zm13.65,10.64h-5.33v-20.92h1.29l1.76,2.03c.86-.78,1.83-1.38,2.91-1.8,1.09-.43,2.23-.64,3.42-.64,1.28,0,2.48.25,3.61.74,1.13.48,2.12,1.15,2.97,2.01.85.85,1.51,1.84,1.99,2.99.49,1.13.74,2.34.74,3.63v11.95h-5.33v-11.95c0-.55-.1-1.06-.31-1.54-.21-.49-.49-.92-.86-1.29-.36-.36-.79-.65-1.27-.86-.48-.21-1-.31-1.54-.31s-1.09.1-1.58.31c-.49.21-.92.49-1.29.86-.36.36-.65.79-.86,1.29-.21.48-.31,1-.31,1.54v11.95Zm39.14-28.01l-9.2,28.01h-5.61l-9.16-28.01h6.37l5.59,18.69,5.61-18.69h6.41Zm8.65,22.89c.21.06.42.11.62.14.21.01.42.02.62.02.52,0,1.02-.07,1.5-.22.48-.14.93-.35,1.35-.6.43-.27.81-.6,1.13-.98.34-.39.61-.82.82-1.29l3.91,3.93c-.5.7-1.07,1.34-1.72,1.89-.64.56-1.33,1.04-2.09,1.43-.74.39-1.53.68-2.36.88-.82.21-1.67.31-2.54.31-1.47,0-2.86-.27-4.16-.82-1.29-.55-2.42-1.31-3.4-2.29-.96-.98-1.73-2.14-2.29-3.48-.56-1.35-.84-2.84-.84-4.45s.28-3.16.84-4.53c.56-1.37,1.32-2.53,2.29-3.5.98-.96,2.11-1.71,3.4-2.25,1.3-.53,2.69-.8,4.16-.8.87,0,1.73.1,2.56.31.83.21,1.62.51,2.36.9.76.39,1.46.87,2.11,1.45.65.56,1.22,1.19,1.72,1.89l-10,12.05Zm2.74-11c-.25-.09-.5-.15-.74-.18-.23-.03-.48-.04-.74-.04-.73,0-1.42.14-2.07.41-.64.26-1.2.64-1.68,1.13-.47.5-.84,1.09-1.11,1.8-.27.69-.41,1.47-.41,2.34,0,.2,0,.42.02.66.03.25.06.5.1.76.05.25.11.49.18.72.07.23.15.44.25.62l6.21-8.24Zm15.29,16.11h-5.33v-20.92h1.29l1.76,2.03c.86-.78,1.83-1.38,2.91-1.8,1.09-.43,2.23-.64,3.42-.64,1.28,0,2.48.25,3.61.74,1.13.48,2.12,1.15,2.97,2.01.85.85,1.51,1.84,1.99,2.99.5,1.13.74,2.34.74,3.63v11.95h-5.33v-11.95c0-.55-.1-1.06-.31-1.54-.21-.49-.5-.92-.86-1.29-.36-.36-.79-.65-1.27-.86-.48-.21-1-.31-1.54-.31s-1.09.1-1.58.31c-.5.21-.93.49-1.29.86-.37.36-.65.79-.86,1.29-.21.48-.31,1-.31,1.54v11.95Zm27.38,0c-1.29,0-2.5-.24-3.63-.72-1.13-.49-2.13-1.16-2.99-2.01-.85-.86-1.52-1.86-2.01-2.99-.48-1.13-.72-2.34-.72-3.63v-6.21h-2.6v-5.31h2.6v-8.36h5.31v8.36h8.08v5.31h-8.08v6.21c0,.56.1,1.09.31,1.58.21.48.49.91.86,1.27.37.36.79.66,1.29.88.5.21,1.02.31,1.58.31h4.04v5.31h-4.04Zm22.42-2.44c-.43.39-.89.76-1.39,1.11-.48.34-.99.64-1.52.9-.53.25-1.09.44-1.66.59-.56.16-1.13.24-1.72.24-1.29,0-2.5-.23-3.63-.68-1.13-.46-2.13-1.1-2.99-1.93-.85-.85-1.52-1.87-2.01-3.07-.48-1.21-.72-2.57-.72-4.06v-11.56h5.31v11.56c0,.7.11,1.33.31,1.89.22.55.51,1.01.88,1.39.36.38.79.66,1.27.86.49.19,1.02.29,1.58.29s1.06-.12,1.54-.37c.49-.26.92-.6,1.29-1.02.37-.42.65-.89.86-1.41.21-.53.31-1.08.31-1.64v-11.56h5.33v20.92h-1.29l-1.76-2.44Zm12.46,2.44h-5.33v-20.92h1.29l1.76,2.48c.86-.78,1.84-1.38,2.93-1.8,1.09-.43,2.23-.64,3.4-.64h4.71v5.31h-4.71c-.56,0-1.09.1-1.58.31-.5.21-.92.49-1.29.86-.36.36-.65.79-.86,1.29-.21.49-.31,1.02-.31,1.58v11.52Zm31.09,0h-1.29l-2.07-2.87c-.51.46-1.05.89-1.62,1.29-.56.39-1.15.74-1.78,1.04-.62.29-1.27.51-1.93.68-.65.17-1.32.25-1.99.25-1.47,0-2.86-.25-4.16-.74-1.29-.49-2.42-1.21-3.4-2.15-.96-.95-1.72-2.11-2.29-3.48-.56-1.37-.84-2.92-.84-4.67,0-1.63.28-3.12.84-4.47.56-1.37,1.32-2.54,2.29-3.52.98-.98,2.11-1.73,3.4-2.26,1.3-.55,2.69-.82,4.16-.82.68,0,1.35.08,2.01.25.66.17,1.31.4,1.93.7.62.3,1.22.65,1.78,1.06.57.4,1.11.84,1.6,1.31l2.07-2.48h1.29v20.88Zm-5.37-10.64c0-.73-.14-1.43-.43-2.11-.27-.69-.65-1.3-1.13-1.82-.48-.53-1.05-.96-1.7-1.27-.64-.33-1.32-.49-2.05-.49s-1.42.12-2.07.37c-.64.25-1.2.61-1.68,1.09-.47.48-.84,1.08-1.11,1.8-.27.7-.41,1.51-.41,2.42s.14,1.73.41,2.44c.27.7.64,1.3,1.11,1.78.48.48,1.04.85,1.68,1.09.65.25,1.34.37,2.07.37s1.41-.16,2.05-.47c.65-.32,1.22-.75,1.7-1.27.48-.53.86-1.14,1.13-1.82.29-.69.43-1.4.43-2.13Z"/></g></g></svg>