<svg width="48" height="28" viewBox="0 0 48 28" fill="none" xmlns="http://www.w3.org/2000/svg">
<path d="M45.9954 12.6339C48.6682 9.9517 48.6682 5.59037 45.9954 2.90822C43.3226 0.226068 38.9765 0.226068 36.3037 2.90822C34.6416 4.57612 34.0166 6.89389 34.4209 9.05389L29.004 3.61821C27.7125 2.32221 25.9942 1.61222 24.1563 1.61222C22.322 1.61222 20.6001 2.32596 19.3123 3.61821C18.0246 4.91045 17.3134 6.63844 17.3134 8.47915C17.3134 8.76088 17.3358 9.03887 17.3695 9.3131L11.6907 3.61821C10.3992 2.32221 8.681 1.61222 6.84672 1.61222C5.01245 1.61222 3.29048 2.32596 2.00273 3.61821C0.714995 4.91045 0 6.63844 0 8.47915C0 10.3199 0.711252 12.0478 1.99899 13.3401L14.4721 25.8569C15.7598 27.1491 17.4818 27.8629 19.3161 27.8629C21.1504 27.8629 22.8723 27.1491 24.1601 25.8569C25.706 24.3054 26.3537 22.1905 26.1066 20.1619L31.7817 25.8569C33.0695 27.1491 34.7913 27.8629 36.6256 27.8629C38.4599 27.8629 40.1819 27.1491 41.4697 25.8569C44.1425 23.1747 44.1425 18.8133 41.4697 16.1312L39.8637 14.5196C40.2868 14.5985 40.7136 14.6398 41.1402 14.6398C42.9035 14.6436 44.6591 13.9749 45.9954 12.6339ZM23.2055 24.8952C21.0643 27.044 17.5754 27.044 15.4341 24.8952L2.96104 12.3784C0.819809 10.2297 0.819809 6.7286 2.96104 4.57988C3.99424 3.54307 5.37555 2.97209 6.84672 2.97209C8.31789 2.97209 9.69923 3.54307 10.7324 4.57988L18.5637 12.4385C18.7883 12.7578 19.0353 13.0621 19.3161 13.3438L23.8831 17.9306C25.3131 20.0718 25.0885 23.0056 23.2055 24.8952ZM40.5189 24.8952C38.3775 27.044 34.8888 27.044 32.7474 24.8952L24.9088 17.0327C24.6879 16.7172 24.4446 16.4167 24.1638 16.1349L19.5931 11.5482C18.1631 9.407 18.3877 6.47317 20.2707 4.57988C21.3038 3.54307 22.6852 2.97209 24.1563 2.97209C25.6276 2.97209 27.0089 3.54307 28.0421 4.57988L40.5152 17.0966C42.66 19.2491 42.66 22.7464 40.5189 24.8952ZM37.2619 3.87364C38.2951 2.83685 39.6765 2.26586 41.1478 2.26586C42.6189 2.26586 44.0003 2.83685 45.0335 3.87364C47.1746 6.02238 47.1746 9.52345 45.0335 11.6722C44.0003 12.709 42.6189 13.28 41.1478 13.28C39.6765 13.28 38.2951 12.709 37.2619 11.6722C35.1208 9.51969 35.1208 6.02238 37.2619 3.87364Z" fill="#FAFAFA"/>
</svg>
