<svg width="24" height="18" viewBox="0 0 24 18" fill="none" xmlns="http://www.w3.org/2000/svg">
<path d="M23.2047 8.745C22.3226 6.46324 20.7912 4.48996 18.7998 3.06906C16.8084 1.64817 14.4443 0.84193 11.9997 0.75C9.55507 0.84193 7.19097 1.64817 5.19958 3.06906C3.20819 4.48996 1.6768 6.46324 0.794681 8.745C0.735106 8.90978 0.735106 9.09022 0.794681 9.255C1.6768 11.5368 3.20819 13.51 5.19958 14.9309C7.19097 16.3518 9.55507 17.1581 11.9997 17.25C14.4443 17.1581 16.8084 16.3518 18.7998 14.9309C20.7912 13.51 22.3226 11.5368 23.2047 9.255C23.2643 9.09022 23.2643 8.90978 23.2047 8.745ZM11.9997 15.75C8.02468 15.75 3.82468 12.8025 2.30218 9C3.82468 5.1975 8.02468 2.25 11.9997 2.25C15.9747 2.25 20.1747 5.1975 21.6972 9C20.1747 12.8025 15.9747 15.75 11.9997 15.75Z" fill="#333333"/>
<path d="M12 4.5C11.11 4.5 10.24 4.76392 9.49994 5.25839C8.75991 5.75285 8.18314 6.45566 7.84254 7.27792C7.50195 8.10019 7.41283 9.00499 7.58647 9.87791C7.7601 10.7508 8.18869 11.5526 8.81802 12.182C9.44736 12.8113 10.2492 13.2399 11.1221 13.4135C11.995 13.5872 12.8998 13.4981 13.7221 13.1575C14.5443 12.8169 15.2471 12.2401 15.7416 11.5001C16.2361 10.76 16.5 9.89002 16.5 9C16.5 7.80653 16.0259 6.66193 15.182 5.81802C14.3381 4.97411 13.1935 4.5 12 4.5ZM12 12C11.4067 12 10.8266 11.8241 10.3333 11.4944C9.83994 11.1648 9.45543 10.6962 9.22836 10.148C9.0013 9.59987 8.94189 8.99667 9.05765 8.41473C9.1734 7.83279 9.45912 7.29824 9.87868 6.87868C10.2982 6.45912 10.8328 6.1734 11.4147 6.05764C11.9967 5.94189 12.5999 6.0013 13.1481 6.22836C13.6962 6.45542 14.1648 6.83994 14.4944 7.33329C14.8241 7.82664 15 8.40666 15 9C15 9.79565 14.6839 10.5587 14.1213 11.1213C13.5587 11.6839 12.7957 12 12 12Z" fill="#333333"/>
</svg>
