<svg width="32" height="32" viewBox="0 0 32 32" fill="none" xmlns="http://www.w3.org/2000/svg">
<g clip-path="url(#clip0_1_2)">
<path d="M24 0H8C3.58172 0 0 3.58172 0 8V24C0 28.4183 3.58172 32 8 32H24C28.4183 32 32 28.4183 32 24V8C32 3.58172 28.4183 0 24 0Z" fill="#0076FF"/>
<path d="M21.2 14C21.6 13.6 21.6 13 21.2 12.6L19.4 10.8C19 10.4 18.4 10.4 18 10.8L10.5 18.3V21.5H13.7L21.2 14ZM18.7 11.5L20.5 13.3L19 14.8L17.2 13L18.7 11.5ZM11.5 20.5V18.7L16.5 13.7L18.3 15.5L13.3 20.5H11.5Z" fill="white"/>
</g>
<defs>
<clipPath id="clip0_1_2">
<rect width="32" height="32" fill="white"/>
</clipPath>
</defs>
</svg>
