<svg width="24" height="22" viewBox="0 0 24 22" fill="none" xmlns="http://www.w3.org/2000/svg">
<path d="M3.92968 15.8825L5.00218 14.8175C3.82784 13.7631 2.90516 12.4585 2.30218 11C3.82468 7.1975 8.02468 4.25 11.9997 4.25C13.0226 4.2635 14.0363 4.44596 14.9997 4.79L16.1622 3.62C14.8442 3.06299 13.4305 2.76751 11.9997 2.75C9.55507 2.84193 7.19097 3.64817 5.19958 5.06906C3.20819 6.48996 1.6768 8.46324 0.794681 10.745C0.735106 10.9098 0.735106 11.0902 0.794681 11.255C1.46087 13.0228 2.535 14.6083 3.92968 15.8825V15.8825Z" fill="#333333"/>
<path d="M9 10.7975C9.05216 10.0788 9.36127 9.40286 9.87081 8.89331C10.3804 8.38377 11.0563 8.07466 11.775 8.0225L13.1325 6.6575C12.3718 6.45721 11.5719 6.45981 10.8126 6.66505C10.0532 6.87028 9.36091 7.27098 8.8047 7.8272C8.24848 8.38341 7.84778 9.07571 7.64255 9.83507C7.43731 10.5944 7.43471 11.3943 7.635 12.155L9 10.7975ZM23.205 10.745C22.345 8.5049 20.8486 6.56527 18.9 5.165L22.5 1.5575L21.4425 0.5L1.5 20.4425L2.5575 21.5L6.3825 17.675C8.08791 18.6755 10.023 19.2181 12 19.25C14.4446 19.1581 16.8087 18.3518 18.8001 16.9309C20.7915 15.51 22.3229 13.5368 23.205 11.255C23.2646 11.0902 23.2646 10.9098 23.205 10.745ZM15 11C14.9968 11.5251 14.8559 12.0401 14.5913 12.4937C14.3267 12.9472 13.9477 13.3234 13.4922 13.5845C13.0367 13.8457 12.5206 13.9827 11.9955 13.982C11.4704 13.9812 10.9547 13.8426 10.5 13.58L14.58 9.5C14.8496 9.9543 14.9945 10.4717 15 11V11ZM12 17.75C10.4265 17.7225 8.88292 17.316 7.5 16.565L9.405 14.66C10.2715 15.2612 11.3217 15.539 12.3721 15.4449C13.4225 15.3507 14.4065 14.8906 15.1523 14.1448C15.8981 13.399 16.3582 12.415 16.4524 11.3646C16.5465 10.3142 16.2687 9.264 15.6675 8.3975L17.82 6.245C19.5409 7.42624 20.8867 9.07657 21.6975 11C20.175 14.8025 15.975 17.75 12 17.75Z" fill="#333333"/>
</svg>
