<svg width="32" height="32" viewBox="0 0 32 32" fill="none" xmlns="http://www.w3.org/2000/svg">
<path d="M5.24 22.51L6.67 21.09C5.10422 19.6841 3.87398 17.9447 3.07 16C5.1 10.93 10.7 7 16 7C17.3639 7.018 18.7154 7.26128 20 7.72L21.55 6.16C19.7927 5.41732 17.9077 5.02335 16 5C12.7405 5.12257 9.58839 6.19756 6.9332 8.09209C4.27802 9.98662 2.23616 12.6176 1.06 15.66C0.980569 15.8797 0.980569 16.1203 1.06 16.34C1.94825 18.697 3.38043 20.811 5.24 22.51Z" fill="black"/>
<path d="M12 15.73C12.0695 14.7717 12.4817 13.8705 13.1611 13.1911C13.8405 12.5117 14.7417 12.0995 15.7 12.03L17.51 10.21C16.4958 9.94294 15.4292 9.94641 14.4168 10.2201C13.4043 10.4937 12.4812 11.028 11.7396 11.7696C10.998 12.5112 10.4637 13.4343 10.1901 14.4468C9.91641 15.4592 9.91294 16.5258 10.18 17.54L12 15.73ZM30.94 15.66C29.7933 12.6732 27.7981 10.087 25.2 8.22L30 3.41L28.59 2L2 28.59L3.41 30L8.51 24.9C10.7839 26.234 13.364 26.9574 16 27C19.2595 26.8774 22.4116 25.8024 25.0668 23.9079C27.722 22.0134 29.7638 19.3824 30.94 16.34C31.0194 16.1203 31.0194 15.8797 30.94 15.66ZM20 16C19.9958 16.7001 19.8079 17.3868 19.4551 17.9916C19.1023 18.5963 18.597 19.0978 17.9896 19.4461C17.3822 19.7943 16.6941 19.977 15.994 19.9759C15.2939 19.9749 14.6063 19.7901 14 19.44L19.44 14C19.7995 14.6057 19.9927 15.2957 20 16ZM16 25C13.9021 24.9634 11.8439 24.4214 10 23.42L12.54 20.88C13.6953 21.6816 15.0955 22.052 16.4961 21.9265C17.8967 21.8009 19.2087 21.1874 20.2031 20.1931C21.1974 19.1987 21.8109 17.8867 21.9365 16.4861C22.062 15.0855 21.6916 13.6853 20.89 12.53L23.76 9.66C26.0546 11.235 27.849 13.4354 28.93 16C26.9 21.07 21.3 25 16 25Z" fill="black"/>
</svg>
