<svg width="28" height="28" viewBox="0 0 28 28" fill="none" xmlns="http://www.w3.org/2000/svg">
<path d="M8 12C7.20888 12 6.43552 11.7654 5.77772 11.3259C5.11992 10.8864 4.60723 10.2616 4.30448 9.53074C4.00173 8.79983 3.92252 7.99556 4.07686 7.21964C4.2312 6.44372 4.61216 5.73098 5.17157 5.17157C5.73098 4.61216 6.44372 4.2312 7.21964 4.07686C7.99556 3.92252 8.79983 4.00173 9.53074 4.30448C10.2616 4.60723 10.8864 5.11992 11.3259 5.77772C11.7654 6.43552 12 7.20888 12 8C11.9988 9.0605 11.577 10.0772 10.8271 10.8271C10.0772 11.577 9.0605 11.9988 8 12ZM8 6C7.60454 5.99961 7.21784 6.11646 6.88878 6.33579C6.55971 6.55511 6.30305 6.86707 6.15124 7.23224C5.99943 7.5974 5.95928 7.99937 6.03587 8.38734C6.11246 8.77531 6.30235 9.13187 6.58153 9.41195C6.86072 9.69203 7.21667 9.88306 7.60439 9.96089C7.99212 10.0387 8.39422 9.99985 8.75986 9.84921C9.12551 9.69857 9.43829 9.44291 9.65866 9.11455C9.87904 8.78619 9.99713 8.39986 9.998 8.0044C9.99864 7.47372 9.78854 6.96449 9.41389 6.58864C9.03924 6.21278 8.53069 6.00106 8 6Z" fill="#0076FF"/>
<path d="M14.6436 27.4145L0.5858 13.3555C0.21075 12.9805 3.37142e-05 12.4718 0 11.9414V2C0 1.46957 0.210714 0.960859 0.585786 0.585786C0.960859 0.210714 1.46957 0 2 0H11.9413C12.4717 7.19391e-06 12.9804 0.210726 13.3555 0.5858L27.4144 14.6436C27.7894 15.0187 28 15.5274 28 16.0578C28 16.5883 27.7894 17.097 27.4144 17.4721L17.472 27.4146C17.0968 27.7895 16.5881 28.0001 16.0578 28.0001C15.5274 28.0001 15.0187 27.7895 14.6435 27.4146L14.6436 27.4145ZM2 2V11.9417L16.0578 26L26 16.0579L11.9416 2H2Z" fill="#0076FF"/>
</svg>
