<svg width="30" height="28" viewBox="0 0 30 28" fill="none" xmlns="http://www.w3.org/2000/svg">
<path d="M10.5 28C11.6046 28 12.5 27.1046 12.5 26C12.5 24.8954 11.6046 24 10.5 24C9.39543 24 8.5 24.8954 8.5 26C8.5 27.1046 9.39543 28 10.5 28Z" fill="#1A9986"/>
<path d="M24.5 28C25.6046 28 26.5 27.1046 26.5 26C26.5 24.8954 25.6046 24 24.5 24C23.3954 24 22.5 24.8954 22.5 26C22.5 27.1046 23.3954 28 24.5 28Z" fill="#1A9986"/>
<path d="M28.5 4.99996H6.32L5.5 0.799959C5.45325 0.570683 5.32758 0.365062 5.14486 0.218887C4.96214 0.0727124 4.73395 -0.00475863 4.5 -4.07016e-05H0.5V1.99996H3.68L7.5 21.2C7.54675 21.4292 7.67242 21.6349 7.85514 21.781C8.03786 21.9272 8.26605 22.0047 8.5 22H26.5V20H9.32L8.5 16H26.5C26.7312 16.0056 26.9571 15.931 27.1395 15.7888C27.3218 15.6465 27.4492 15.4455 27.5 15.22L29.5 6.21996C29.5335 6.07158 29.5327 5.91752 29.4977 5.76949C29.4627 5.62146 29.3944 5.48337 29.298 5.36573C29.2015 5.24809 29.0795 5.15399 28.9413 5.09061C28.803 5.02723 28.6521 4.99622 28.5 4.99996ZM25.7 14H8.12L6.72 6.99996H27.25L25.7 14Z" fill="#1A9986"/>
</svg>
