<svg width="12" height="14" viewBox="0 0 12 14" fill="none" xmlns="http://www.w3.org/2000/svg">
<path d="M11 11V13H1V11H0V13L0.00379992 12.9976C0.00332641 13.1288 0.0287254 13.2589 0.0785446 13.3803C0.128364 13.5017 0.201626 13.6121 0.294145 13.7052C0.386663 13.7983 0.496623 13.8723 0.617738 13.9229C0.738853 13.9734 0.868749 13.9997 1 14H11C11.2652 14 11.5196 13.8946 11.7071 13.7071C11.8946 13.5196 12 13.2652 12 13V11H11ZM1 5L1.7055 5.7025L5.5 1.9125V11H6.5V1.9125L10.2955 5.7025L11 5L6 0L1 5Z" fill="#0076FF"/>
</svg>
