<svg width="30" height="42" viewBox="0 0 30 42" fill="none" xmlns="http://www.w3.org/2000/svg">
<path d="M15 3C16.4834 3 17.9334 3.43987 19.1668 4.26398C20.4001 5.08809 21.3614 6.25943 21.9291 7.62987C22.4968 9.00032 22.6453 10.5083 22.3559 11.9632C22.0665 13.418 21.3522 14.7544 20.3033 15.8033C19.2544 16.8522 17.918 17.5665 16.4632 17.8559C15.0083 18.1453 13.5003 17.9968 12.1299 17.4291C10.7594 16.8614 9.58809 15.9001 8.76398 14.6668C7.93987 13.4334 7.5 11.9834 7.5 10.5C7.5 8.51088 8.29018 6.60322 9.6967 5.1967C11.1032 3.79018 13.0109 3 15 3ZM15 0C12.9233 0 10.8932 0.615814 9.16651 1.76957C7.4398 2.92332 6.09399 4.5632 5.29927 6.48182C4.50455 8.40045 4.29661 10.5116 4.70176 12.5484C5.1069 14.5852 6.10693 16.4562 7.57538 17.9246C9.04383 19.3931 10.9148 20.3931 12.9516 20.7982C14.9884 21.2034 17.0996 20.9955 19.0182 20.2007C20.9368 19.406 22.5767 18.0602 23.7304 16.3335C24.8842 14.6068 25.5 12.5767 25.5 10.5C25.5 7.71523 24.3938 5.04451 22.4246 3.07538C20.4555 1.10625 17.7848 0 15 0ZM30 42H27V34.5C27 33.5151 26.806 32.5398 26.4291 31.6299C26.0522 30.7199 25.4997 29.8931 24.8033 29.1967C24.1069 28.5003 23.2801 27.9478 22.3701 27.5709C21.4602 27.194 20.4849 27 19.5 27H10.5C8.51088 27 6.60322 27.7902 5.1967 29.1967C3.79018 30.6032 3 32.5109 3 34.5V42H0V34.5C0 31.7152 1.10625 29.0445 3.07538 27.0754C5.04451 25.1062 7.71523 24 10.5 24H19.5C22.2848 24 24.9555 25.1062 26.9246 27.0754C28.8938 29.0445 30 31.7152 30 34.5V42Z" fill="#D9D9D9"/>
</svg>
